<svg width="446" height="100" viewBox="0 0 446 100" fill="none" xmlns="http://www.w3.org/2000/svg">
<path d="M191.525 18.9349C193.603 19.8225 195.088 20.7101 196.276 22.1894C197.463 23.6686 198.057 25.4438 198.057 27.5148C198.057 30.4734 196.869 33.1361 194.197 34.6154C191.525 36.3905 187.961 37.2781 183.21 37.2781H163.315V2.07101H182.319C187.07 2.07101 190.634 2.95858 193.009 4.43787C195.385 6.21302 196.572 8.28402 196.572 11.2426C196.572 13.0178 196.276 14.497 195.385 15.6805C194.197 17.1598 193.009 18.0473 191.525 18.9349ZM174.896 10.355V15.6805H180.538C183.21 15.6805 184.398 14.7929 184.398 13.0178C184.398 11.2426 183.21 10.355 180.538 10.355H174.896V10.355ZM182.023 28.9941C184.695 28.9941 185.883 28.1065 185.883 26.3314C185.883 24.5562 184.695 23.6686 182.023 23.6686H174.896V29.2899H182.023V28.9941ZM216.467 37.8698C213.498 37.8698 210.529 37.2781 208.153 36.0947C205.778 34.9112 203.699 33.1361 202.511 31.0651C201.027 28.9941 200.433 26.3314 200.433 23.6686C200.433 21.0059 201.027 18.3432 202.511 16.2722C203.996 14.2012 205.778 12.426 208.153 11.2426C210.529 10.0592 213.498 9.46746 216.467 9.46746C219.437 9.46746 222.406 10.0592 224.782 11.2426C227.157 12.426 229.236 14.2012 230.423 16.2722C231.908 18.3432 232.502 20.7101 232.502 23.6686C232.502 26.6272 231.908 28.9941 230.423 31.0651C228.939 33.1361 227.157 34.9112 224.782 36.0947C222.406 37.2781 219.734 37.8698 216.467 37.8698ZM216.467 28.9941C217.655 28.9941 218.843 28.4024 219.734 27.5148C220.624 26.6272 220.921 25.1479 220.921 23.6686C220.921 22.1894 220.624 20.7101 219.734 19.8225C218.843 18.9349 217.952 18.3432 216.467 18.3432C214.983 18.3432 214.092 18.9349 213.201 19.8225C212.31 20.7101 212.013 22.1894 212.013 23.6686C212.013 25.1479 212.31 26.6272 213.201 27.8107C214.092 28.4024 215.28 28.9941 216.467 28.9941ZM266.353 9.76331V37.2781H255.366V34.6154C254.475 35.7988 253.288 36.3905 251.803 36.9823C250.318 37.574 249.13 37.8698 247.646 37.8698C244.082 37.8698 241.41 36.6864 239.331 34.6154C237.253 32.5444 236.065 29.2899 236.065 24.8521V9.76331H247.349V23.0769C247.349 24.8521 247.646 26.3314 248.24 27.2189C248.833 28.1065 249.724 28.4024 250.912 28.4024C252.1 28.4024 252.991 28.1065 253.584 27.2189C254.178 26.3314 254.772 24.8521 254.772 23.0769V9.76331H266.353ZM290.405 9.1716C293.671 9.1716 296.64 10.0592 298.719 12.1302C300.798 14.2012 301.985 17.1598 301.985 21.3018V36.9823H290.702V23.6686C290.702 20.4142 289.514 18.9349 287.435 18.9349C286.248 18.9349 285.06 19.5266 284.169 20.4142C283.278 21.3018 282.981 22.7811 282.981 24.5562V37.574H271.698V9.76331H282.09V12.426C283.278 11.2426 284.466 10.6509 285.951 10.0592C287.435 9.46746 288.92 9.1716 290.405 9.1716ZM337.915 0V37.2781H326.928V34.9112C325.146 36.6864 322.771 37.574 319.208 37.574C316.832 37.574 314.457 36.9823 312.378 35.7988C310.3 34.6154 308.815 32.8402 307.627 30.7692C306.439 28.6982 305.845 26.0355 305.845 23.0769C305.845 20.1183 306.439 17.7515 307.627 15.6805C308.815 13.6095 310.596 11.8343 312.378 10.6509C314.457 9.46746 316.535 8.87574 319.208 8.87574C322.177 8.87574 324.553 9.76331 326.334 11.2426V0H337.915ZM322.177 28.9941C323.365 28.9941 324.553 28.4024 325.443 27.5148C326.334 26.6272 326.631 25.1479 326.631 23.6686C326.631 22.1894 326.334 20.7101 325.443 19.8225C324.553 18.9349 323.662 18.3432 322.177 18.3432C320.989 18.3432 319.802 18.9349 318.911 19.8225C318.02 20.4142 317.723 21.8935 317.723 23.6686C317.723 25.4438 318.02 26.6272 318.911 27.8107C319.802 28.4024 320.692 28.9941 322.177 28.9941ZM342.963 0H354.246V37.2781H342.963V0ZM388.691 23.6686C388.691 23.9645 388.691 24.8521 388.394 26.3314H369.093C369.39 27.5148 370.281 28.1065 371.172 28.6982C372.063 29.2899 373.25 29.5858 374.735 29.5858C375.923 29.5858 376.813 29.2899 377.704 28.9941C378.595 28.6982 379.486 28.1065 380.377 27.5148L386.316 33.432C383.643 36.3905 379.486 37.8698 374.141 37.8698C370.875 37.8698 367.905 37.2781 365.233 36.0947C362.857 34.9112 360.779 33.1361 359.294 31.0651C357.81 28.9941 357.216 26.3314 357.216 23.6686C357.216 21.0059 357.81 18.3432 359.294 16.2722C360.779 14.2012 362.561 12.426 364.936 11.2426C367.312 10.0592 369.984 9.46746 372.953 9.46746C375.626 9.46746 378.298 10.0592 380.674 11.2426C383.049 12.426 384.831 13.9053 386.316 15.9763C388.097 18.0473 388.691 20.4142 388.691 23.6686ZM373.547 17.1598C372.359 17.1598 371.469 17.4556 370.578 18.0473C369.687 18.6391 369.39 19.5266 369.093 20.7101H378.001C377.704 19.5266 377.11 18.6391 376.517 18.0473C375.923 17.4556 374.735 17.1598 373.547 17.1598ZM403.241 37.8698C400.865 37.8698 398.49 37.574 396.411 36.9823C394.036 36.3905 392.254 35.7988 390.77 34.9112L394.036 27.5148C395.224 28.4024 396.708 28.9941 398.49 29.2899C400.272 29.5858 402.053 29.8817 403.538 29.8817C404.726 29.8817 405.616 29.8817 406.21 29.5858C406.804 29.5858 406.804 29.2899 406.804 28.6982C406.804 28.4024 406.507 28.1065 405.913 27.8107C405.319 27.5148 404.132 27.5148 402.647 27.2189C400.272 26.9231 398.49 26.6272 397.005 26.3314C395.521 26.0355 394.036 25.1479 392.848 23.9645C391.66 22.7811 391.066 21.0059 391.066 18.6391C391.066 16.8639 391.66 15.3846 392.551 13.9053C393.739 12.426 395.224 11.2426 397.302 10.6509C399.381 9.76331 402.053 9.46746 405.023 9.46746C407.101 9.46746 409.18 9.76331 411.258 10.0592C413.337 10.355 415.118 10.9467 416.306 11.8343L413.04 19.2308C410.664 17.7515 407.992 17.1598 405.023 17.1598C402.647 17.1598 401.162 17.4556 401.162 18.3432C401.162 18.6391 401.459 19.2308 402.053 19.2308C402.647 19.5266 403.835 19.5266 405.319 19.8225C407.695 20.1183 409.477 20.4142 410.961 21.0059C412.446 21.3018 413.931 22.1894 415.118 23.3728C416.306 24.5562 416.9 26.3314 416.9 28.6982C416.9 30.4734 416.306 31.9527 415.415 33.432C414.228 34.9112 412.743 36.0947 410.664 36.6864C408.883 37.2781 406.21 37.8698 403.241 37.8698ZM431.747 37.8698C429.371 37.8698 426.996 37.574 424.917 36.9823C422.542 36.3905 420.76 35.7988 419.276 34.9112L422.542 27.5148C423.73 28.4024 425.214 28.9941 426.996 29.2899C428.778 29.5858 430.559 29.8817 432.044 29.8817C433.232 29.8817 434.122 29.8817 434.716 29.5858C435.31 29.2899 435.607 28.9941 435.607 28.6982C435.607 28.4024 435.31 28.1065 434.716 27.8107C434.122 27.5148 432.935 27.5148 431.45 27.2189C429.074 26.9231 427.293 26.6272 425.808 26.3314C424.323 26.0355 422.839 25.1479 421.651 23.9645C420.463 22.7811 419.869 21.0059 419.869 18.6391C419.869 16.8639 420.463 15.3846 421.354 13.9053C422.542 12.426 424.027 11.2426 426.105 10.6509C428.184 9.76331 430.856 9.46746 433.826 9.46746C435.904 9.46746 437.983 9.76331 440.061 10.0592C442.14 10.355 443.921 10.9467 445.109 11.8343L441.843 19.2308C439.467 17.7515 436.795 17.1598 433.826 17.1598C431.45 17.1598 429.965 17.4556 429.965 18.3432C429.965 18.6391 430.262 19.2308 430.856 19.2308C431.45 19.5266 432.638 19.5266 434.122 19.8225C436.498 20.1183 438.28 20.4142 439.764 21.0059C441.249 21.3018 442.734 22.1894 443.921 23.3728C445.109 24.5562 445.703 26.3314 445.703 28.6982C445.703 30.4734 445.109 31.9527 444.218 33.432C443.031 34.9112 441.546 36.0947 439.467 36.6864C437.389 37.2781 434.716 37.8698 431.747 37.8698ZM176.084 100C173.411 100 170.442 99.7042 168.066 98.8166C165.394 97.929 163.315 97.0414 161.831 95.858L164.503 89.645C165.988 90.8284 167.77 91.716 169.848 92.3077C171.927 92.8994 174.005 93.1953 176.084 93.1953C178.459 93.1953 180.241 92.8994 181.132 92.3077C182.319 91.716 182.913 90.8284 182.913 89.645C182.913 88.7574 182.616 88.1657 182.023 87.574C181.429 86.9823 180.538 86.6864 179.647 86.0947C178.756 85.7988 177.272 85.503 175.49 84.9112C172.817 84.3195 170.739 83.7278 168.957 83.1361C167.176 82.5444 165.691 81.361 164.503 80.1775C163.316 78.6982 162.722 76.9231 162.722 74.5562C162.722 72.4852 163.316 70.7101 164.503 68.9349C165.691 67.1598 167.176 65.9763 169.551 65.0888C171.927 64.2012 174.599 63.6095 177.865 63.6095C180.241 63.6095 182.319 63.9053 184.398 64.497C186.477 65.0888 188.555 65.6805 190.04 66.8639L187.07 73.0769C183.804 71.3018 180.538 70.4142 177.272 70.4142C174.896 70.4142 173.411 70.7101 172.224 71.5976C171.036 72.1894 170.739 73.3728 170.739 74.5562C170.739 75.7397 171.333 76.6272 172.521 77.2189C173.708 77.8107 175.787 78.4024 178.459 78.9941C181.132 79.5858 183.21 80.1775 184.992 80.7692C186.774 81.3609 188.258 82.5444 189.446 83.7278C190.634 85.2071 191.228 86.9823 191.228 89.3491C191.228 91.4201 190.634 93.1953 189.446 94.9704C188.258 96.7456 186.774 97.929 184.398 98.8166C182.023 99.7042 179.35 100 176.084 100ZM209.044 100C206.074 100 203.699 99.4083 201.323 98.2249C198.948 97.0414 197.166 95.2663 195.979 93.1953C194.791 91.1243 194.197 88.7574 194.197 86.0947C194.197 83.432 194.791 81.0651 195.979 78.9941C197.166 76.9231 198.948 75.1479 201.323 73.9645C203.699 72.7811 206.074 72.1894 209.044 72.1894C212.013 72.1894 214.389 72.7811 216.764 73.9645C219.14 75.1479 220.921 76.9231 222.109 78.9941C223.297 81.0651 223.891 83.432 223.891 86.0947C223.891 88.7574 223.297 91.1243 222.109 93.1953C220.921 95.2663 219.14 97.0414 216.764 98.2249C214.389 99.4083 212.013 100 209.044 100ZM209.044 93.4911C211.122 93.4911 212.607 92.8994 214.092 91.4201C215.28 89.9408 216.17 88.1657 216.17 85.7988C216.17 83.432 215.576 81.6568 214.092 80.4734C212.904 78.9941 211.122 78.4024 209.044 78.4024C206.965 78.4024 205.481 78.9941 203.996 80.4734C202.808 81.9527 201.917 83.7278 201.917 85.7988C201.917 88.1657 202.511 89.9408 203.996 91.4201C205.481 92.6036 206.965 93.4911 209.044 93.4911ZM237.847 73.0769H244.676V78.9941H237.847V99.4083H229.829V78.9941H225.672V73.0769H229.829V71.8935C229.829 68.9349 230.72 66.2722 232.502 64.497C234.284 62.7219 236.956 61.8343 240.222 61.8343C241.41 61.8343 242.598 61.8343 243.489 62.1302C244.676 62.426 245.567 62.7219 246.161 63.3136L244.082 68.9349C243.192 68.3432 242.004 68.0473 240.816 68.0473C238.441 68.0473 237.253 69.2308 237.253 71.8935V73.0769H237.847ZM266.353 98.2249C265.462 98.8166 264.571 99.1124 263.383 99.4083C262.196 99.7041 261.008 99.7041 259.82 99.7041C256.554 99.7041 254.178 98.8166 252.397 97.3373C250.615 95.5621 249.724 93.1953 249.724 90.2367V78.9941H245.567V73.0769H249.724V66.5681H257.742V73.0769H264.274V78.9941H257.445V89.9408C257.445 91.1243 257.742 92.0118 258.335 92.6036C258.929 93.1953 259.82 93.4911 260.711 93.4911C261.899 93.4911 263.086 93.1953 263.977 92.6036L266.353 98.2249ZM313.863 72.4852L304.064 99.4083H296.64L290.405 82.5444L284.169 99.4083H276.449L266.65 72.4852H274.073L280.606 90.8284L287.138 72.4852H293.671L300.204 90.8284L306.736 72.4852H313.863ZM327.522 71.8935C331.679 71.8935 334.945 72.7811 337.321 74.8521C339.696 76.9231 340.587 79.8817 340.587 83.7278V99.1124H333.164V95.858C331.679 98.2249 329.007 99.7041 324.849 99.7041C322.771 99.7041 320.989 99.4083 319.505 98.5207C318.02 97.929 316.832 96.7456 315.941 95.5621C315.051 94.3787 314.754 92.8994 314.754 91.4201C314.754 88.7574 315.644 86.9823 317.723 85.503C319.505 84.0237 322.474 83.432 326.631 83.432H332.867C332.867 81.6568 332.273 80.4734 331.382 79.5858C330.194 78.6982 328.71 78.1065 326.631 78.1065C325.146 78.1065 323.662 78.4024 322.474 78.6982C320.989 78.9941 319.802 79.8817 318.911 80.4734L315.941 74.8521C317.426 73.6686 319.208 73.0769 321.286 72.4852C323.365 72.1894 325.443 71.8935 327.522 71.8935ZM326.928 94.6746C328.413 94.6746 329.6 94.3787 330.491 93.787C331.679 93.1953 332.273 92.3077 332.57 91.1243V88.4615H327.225C323.959 88.4615 322.474 89.645 322.474 91.716C322.474 92.6036 322.771 93.4911 323.662 94.0828C324.553 94.3787 325.443 94.6746 326.928 94.6746ZM355.137 76.0355C356.028 74.8521 357.216 73.6686 358.997 73.0769C360.482 72.4852 362.561 72.1894 364.639 72.1894V79.2899C363.748 79.2899 363.154 79.2899 362.857 79.2899C360.482 79.2899 358.7 79.8817 357.513 81.0651C356.325 82.2485 355.731 84.3195 355.731 86.6864V99.4083H347.714V72.4852H355.137V76.0355V76.0355ZM395.521 86.0947C395.521 86.0947 395.521 86.9823 395.224 88.1657H374.735C375.032 89.9408 375.923 91.1243 377.407 92.0118C378.892 92.8994 380.377 93.4911 382.455 93.4911C383.94 93.4911 385.128 93.1953 386.316 92.8994C387.503 92.6036 388.394 91.716 389.285 90.8284L393.442 95.2663C390.77 98.2249 387.206 99.7041 382.158 99.7041C379.189 99.7041 376.517 99.1124 374.141 97.929C371.766 96.7456 369.984 94.9704 368.796 92.8994C367.608 90.8284 367.015 88.4615 367.015 85.7988C367.015 83.1361 367.608 80.7692 368.796 78.6982C369.984 76.6272 371.766 74.8521 374.141 73.6686C376.22 72.4852 378.892 71.8935 381.564 71.8935C384.237 71.8935 386.612 72.4852 388.691 73.6686C390.77 74.8521 392.551 76.3314 393.739 78.6982C394.927 80.7692 395.521 83.1361 395.521 86.0947ZM381.564 77.8107C379.783 77.8107 378.298 78.4024 377.11 79.2899C375.923 80.1775 375.032 81.6568 375.032 83.432H388.394C388.097 81.6568 387.503 80.4734 386.316 79.2899C384.831 78.4024 383.346 77.8107 381.564 77.8107Z" fill="white"/>
<path d="M33.257 69.2308C28.506 69.2308 24.0519 67.4556 20.4887 64.2012C17.2224 60.9467 15.1438 56.5089 15.1438 51.7751C15.1438 47.0414 16.9254 42.8994 20.4887 39.645C23.755 36.3905 28.506 34.6154 33.257 34.6154C38.008 34.6154 42.4621 36.3905 46.0253 39.645L58.7936 51.7751L69.4834 41.1242L56.7151 28.9941C50.4794 22.7811 42.1651 19.5266 33.257 19.5266C24.3489 19.5266 16.0346 22.7811 9.79894 28.9941C3.26631 35.2071 0 43.1953 0 51.7751C0 60.355 3.26631 68.3432 9.79894 74.5562C16.0346 80.7692 24.3489 84.0237 33.257 84.0237C42.1651 84.0237 50.4794 80.7692 56.7151 74.5562L46.0253 64.2012C42.4621 67.4556 38.008 69.2308 33.257 69.2308Z" fill="#87C232"/>
<path d="M128.871 28.9941C122.635 22.7811 114.321 19.5266 105.413 19.5266C97.0985 19.5266 89.0812 22.4852 82.8455 28.1065C85.8149 26.0355 89.972 26.3313 92.6445 28.9941C95.3169 31.6568 95.6138 35.7988 93.2383 38.7574C96.5046 35.7988 100.662 34.3195 105.116 34.3195C109.867 34.3195 114.321 36.0947 117.884 39.3491C121.15 42.6035 123.229 47.0414 123.229 51.4793C123.229 55.9171 121.447 60.355 117.884 63.9053C114.618 67.1597 109.867 68.9349 105.116 68.9349C100.365 68.9349 95.9108 67.1597 92.6445 63.9053L80.1731 51.7751L81.9547 74.5562C95.02 87.2781 115.806 87.2781 128.871 74.5562C141.936 61.8343 141.936 41.716 128.871 28.9941Z" fill="#87C232"/>
<path d="M51.0731 76.9231C48.9946 76.9231 47.2129 76.0355 45.7283 74.5562C42.7589 71.5977 42.7589 66.8639 45.7283 64.2012L51.667 58.5799C54.6364 55.6213 59.6843 55.6213 62.3567 58.5799C65.3261 61.5385 65.3261 66.2722 62.3567 68.9349L56.418 74.5562C55.2302 76.0355 53.1517 76.9231 51.0731 76.9231Z" fill="#78B522"/>
<path d="M81.6583 47.3373C79.5798 47.3373 77.7981 46.4497 76.3135 44.9704C73.3441 42.0118 73.3441 37.2781 76.3135 34.6154L82.2522 28.9941C85.2216 26.0355 90.2695 26.0355 92.9419 28.9941C95.9113 31.9527 95.9113 36.6864 92.9419 39.3491L87.0032 44.9704C85.5185 46.7456 83.4399 47.3373 81.6583 47.3373Z" fill="#78B522"/>
<path d="M87.2995 76.6272C85.2209 76.6272 83.4393 75.7396 81.9546 74.2603C81.9546 74.2603 81.9546 74.2603 81.6577 73.9645L45.7283 39.3491C42.7589 36.3905 42.7589 31.6568 45.7283 28.9941C48.6976 26.0355 53.7456 26.0355 56.418 28.9941L92.6444 63.9053C95.6137 66.8639 95.6137 71.5976 92.6444 74.2603C91.1597 75.7396 89.3781 76.6272 87.2995 76.6272Z" fill="#87C232"/>
</svg>
