<?xml version="1.0" standalone="no"?>
<!DOCTYPE svg PUBLIC "-//W3C//DTD SVG 20010904//EN"
 "http://www.w3.org/TR/2001/REC-SVG-20010904/DTD/svg10.dtd">
<svg version="1.0" xmlns="http://www.w3.org/2000/svg"
 width="1216.315639pt" height="1427.290531pt" viewBox="0 0 1216.315639 1427.290531"
 preserveAspectRatio="xMidYMid meet">

<g transform="translate(-397.650706,1715.978083) scale(0.100000,-0.100000)"
fill="oklab(0.999994 0.0000455678 0.0000200868)" stroke="none">
<path d="M9700 17157 c-3 -3 -61 -10 -130 -16 -69 -6 -150 -15 -180 -21 -30
-5 -100 -16 -155 -25 -184 -31 -335 -63 -500 -106 -66 -17 -133 -34 -150 -39
-73 -18 -282 -92 -422 -148 -359 -144 -688 -326 -1022 -566 -295 -211 -587
-480 -836 -771 -33 -38 -62 -72 -65 -75 -23 -21 -183 -238 -250 -340 -157
-235 -252 -406 -355 -635 -47 -104 -143 -363 -176 -475 -10 -36 -23 -78 -29
-95 -25 -80 -89 -373 -104 -480 -10 -66 -21 -149 -27 -185 -14 -102 -32 -669
-22 -724 l8 -48 110 -37 c61 -20 157 -58 215 -84 58 -26 113 -47 123 -47 40 0
47 53 47 337 0 697 104 1174 380 1739 197 404 432 735 750 1055 240 242 288
284 530 466 84 64 299 205 375 248 28 15 85 47 127 70 175 98 365 178 658 279
170 59 398 117 655 166 90 17 267 39 410 51 181 15 687 15 835 0 427 -44 771
-113 1030 -205 41 -15 109 -39 150 -53 189 -65 548 -228 659 -297 22 -14 43
-26 46 -26 3 0 65 -37 138 -82 364 -226 649 -464 950 -793 373 -409 673 -951
832 -1505 38 -130 40 -140 73 -305 53 -269 74 -547 65 -872 -5 -221 -4 -253 9
-258 8 -3 55 13 104 37 110 53 137 64 244 92 47 12 96 28 109 35 l24 13 -6
317 c-3 174 -11 354 -17 401 -36 281 -61 422 -106 595 -14 55 -29 114 -33 130
-4 17 -14 48 -21 70 -7 22 -20 60 -28 85 -8 25 -18 54 -22 65 -5 11 -21 54
-35 95 -31 85 -42 112 -79 193 -14 32 -26 60 -26 62 0 7 -124 256 -160 320
-92 167 -316 491 -441 640 -250 298 -543 573 -830 782 -141 102 -400 273 -414
273 -3 0 -33 18 -69 39 -94 58 -386 198 -551 266 -49 20 -103 42 -120 49 -173
76 -453 161 -740 226 -173 39 -434 79 -660 102 -111 11 -866 24 -875 15z"/>
<path d="M10088 15613 c-29 -27 -87 -84 -128 -128 -41 -44 -145 -154 -231
-245 -375 -396 -500 -559 -629 -825 -122 -250 -164 -419 -165 -660 0 -198 25
-304 117 -495 49 -100 65 -126 179 -285 236 -331 287 -431 310 -611 20 -155
-17 -306 -99 -396 -13 -14 -21 -31 -18 -37 20 -32 131 16 205 88 153 149 207
519 116 787 -23 69 -55 131 -133 264 -96 161 -124 218 -155 310 -44 129 -57
211 -57 347 0 134 24 255 70 360 18 42 40 51 40 17 0 -13 26 -87 60 -169 50
-122 77 -185 90 -210 63 -114 94 -163 165 -265 305 -431 385 -609 385 -863 0
-190 -37 -311 -184 -607 -88 -176 -115 -245 -99 -261 8 -8 27 5 71 48 63 63
74 72 272 228 351 276 515 502 551 755 11 80 11 101 -4 173 -22 104 -87 237
-167 342 -33 44 -157 177 -274 295 -302 304 -374 396 -487 620 -146 289 -128
620 54 1025 36 80 147 282 214 388 13 21 21 42 18 47 -12 19 -36 9 -87 -37z"/>
<path d="M10944 12377 c-22 -24 -59 -68 -84 -98 -75 -90 -181 -192 -247 -237
-127 -86 -130 -86 375 -94 422 -6 698 -18 902 -38 58 -5 177 -17 265 -25 88
-9 189 -20 225 -25 36 -5 119 -16 185 -25 66 -8 143 -20 170 -25 28 -5 97 -16
155 -25 91 -15 187 -34 330 -65 78 -17 160 -59 160 -81 0 -11 -70 -43 -115
-52 -16 -3 -61 -13 -100 -22 -95 -21 -225 -44 -315 -55 -41 -5 -127 -16 -190
-24 -63 -8 -142 -17 -175 -21 -453 -47 -697 -67 -1150 -95 -360 -21 -1205 -31
-1755 -21 -739 15 -1123 41 -1785 121 -287 34 -351 42 -445 56 -226 32 -347
55 -482 91 -95 25 -113 38 -85 61 19 16 245 71 442 107 50 9 122 22 160 30
131 25 315 50 515 70 85 8 200 20 255 25 119 12 357 27 627 40 109 5 225 14
258 21 57 11 65 17 113 71 29 32 67 87 86 121 30 53 35 72 35 129 1 61 -1 69
-24 85 -14 10 -38 21 -55 25 -81 19 -1136 -30 -1545 -72 -173 -18 -385 -41
-420 -45 -124 -17 -388 -57 -460 -71 -47 -8 -108 -19 -136 -24 -168 -28 -432
-111 -541 -170 -145 -78 -260 -186 -304 -286 -65 -146 51 -280 326 -377 80
-29 249 -80 315 -97 25 -6 61 -16 80 -21 203 -52 509 -101 995 -158 50 -6 131
-16 180 -22 195 -23 545 -57 730 -69 729 -48 931 -54 1780 -54 805 0 1049 8
1710 54 369 26 973 94 1235 140 231 40 267 47 415 80 22 5 74 16 115 25 360
77 616 179 706 279 56 62 67 88 60 143 -22 165 -204 310 -521 414 -65 22 -285
84 -325 92 -14 3 -56 12 -95 21 -212 48 -442 87 -710 120 -355 44 -480 55
-970 86 -93 5 -237 15 -320 20 -82 6 -232 10 -331 10 l-181 0 -39 -43z"/>
<path d="M4910 12235 c-8 -2 -55 -9 -105 -15 -343 -47 -633 -278 -769 -614
-42 -103 -59 -208 -59 -366 -1 -129 3 -169 22 -239 75 -282 191 -471 451 -731
134 -135 205 -201 315 -295 179 -153 188 -166 220 -309 19 -86 47 -126 87
-126 37 0 65 26 104 98 88 162 131 232 185 305 42 55 59 87 59 108 0 59 -71
136 -365 399 -376 336 -494 495 -536 722 -25 136 34 315 133 402 102 89 195
121 348 120 107 -1 200 -18 235 -44 26 -20 171 -90 186 -90 17 0 49 30 49 47
0 21 82 158 155 258 41 57 75 110 75 118 0 25 -63 72 -154 116 -47 23 -92 41
-100 41 -8 0 -17 4 -20 9 -3 5 -16 11 -28 14 -13 2 -57 14 -98 25 -123 34
-330 59 -390 47z"/>
<path d="M15045 12219 c-156 -19 -277 -53 -399 -115 -50 -26 -99 -53 -108 -62
-20 -17 -23 -48 -8 -88 20 -51 235 -364 251 -364 8 0 39 11 68 25 98 48 199
75 275 75 129 0 225 -37 322 -123 139 -124 184 -277 135 -463 -49 -190 -125
-298 -432 -610 -136 -138 -266 -277 -290 -309 -54 -72 -55 -105 -6 -172 55
-76 145 -228 204 -345 40 -82 58 -108 73 -108 26 0 42 33 51 100 14 117 62
183 273 376 231 210 352 343 465 512 115 173 160 281 211 514 13 62 13 272 -1
340 -27 133 -42 177 -99 291 -140 282 -433 488 -746 526 -99 12 -137 12 -239
0z"/>
<path d="M5596 11351 c-10 -16 11 -55 42 -78 81 -59 265 -134 283 -116 12 12
-15 34 -71 58 -66 29 -160 82 -202 116 -40 32 -44 33 -52 20z"/>
<path d="M14425 11262 c-131 -88 -155 -112 -114 -112 37 0 200 85 242 125 38
37 45 68 17 72 -8 1 -73 -37 -145 -85z"/>
<path d="M14025 11085 c-68 -23 -437 -109 -575 -134 -30 -6 -91 -17 -135 -25
-44 -8 -116 -20 -160 -26 -44 -7 -118 -18 -165 -26 -181 -29 -588 -77 -805
-94 -497 -41 -539 -43 -1225 -70 -680 -26 -1882 -5 -2505 45 -104 9 -245 20
-312 25 -68 5 -160 14 -205 19 -46 5 -130 15 -188 21 -131 14 -305 37 -435 56
-205 30 -242 35 -315 49 -41 7 -109 19 -150 25 -41 7 -102 18 -135 26 -183 41
-295 67 -335 80 -25 7 -69 16 -98 20 l-53 7 8 -44 c4 -24 8 -109 8 -189 -1
-228 -6 -236 -307 -513 -248 -226 -460 -531 -686 -982 -133 -265 -226 -614
-268 -1005 -27 -250 -14 -599 32 -860 92 -516 315 -1070 612 -1520 179 -271
376 -508 621 -749 247 -243 545 -463 831 -614 218 -115 591 -265 800 -322 36
-9 76 -21 90 -26 14 -4 57 -15 95 -24 39 -9 86 -20 105 -25 19 -5 105 -23 190
-40 85 -16 178 -35 205 -40 205 -41 494 -77 850 -107 280 -23 1074 -23 1405 0
315 23 557 50 785 88 66 11 147 24 180 29 294 42 695 148 1115 295 158 55 399
184 583 312 394 275 797 681 1058 1068 268 397 410 680 549 1095 5 14 22 72
39 130 17 58 35 119 40 135 5 17 16 64 26 105 9 41 20 93 25 115 11 46 33 178
51 310 26 179 15 557 -22 805 -33 225 -104 513 -158 645 -8 20 -27 67 -53 135
-30 79 -170 344 -248 470 -147 235 -276 395 -502 615 -85 84 -164 170 -178
195 -24 44 -24 50 -25 284 0 148 -4 241 -10 242 -6 2 -28 -3 -50 -11z m-440
-475 c3 -5 12 -34 20 -64 19 -74 76 -164 209 -331 212 -266 290 -377 390 -560
123 -224 209 -460 260 -715 10 -47 21 -103 26 -125 5 -22 16 -130 26 -241 17
-190 17 -212 1 -405 -22 -257 -30 -315 -81 -529 -35 -147 -66 -246 -121 -385
-188 -482 -404 -814 -759 -1170 -602 -603 -1341 -957 -2236 -1069 -509 -64
-1087 -31 -1570 91 -173 43 -448 133 -595 194 -11 4 -56 22 -100 40 -222 90
-533 265 -760 429 -529 381 -913 812 -1169 1315 -109 211 -200 422 -226 520
-5 17 -24 86 -43 155 -76 272 -102 429 -118 711 -13 213 -3 479 21 614 48 267
70 344 165 585 108 272 359 743 417 779 23 14 140 3 366 -35 79 -13 158 -24
176 -24 18 0 40 -6 50 -13 17 -13 14 -21 -53 -135 -117 -197 -264 -526 -329
-732 -17 -54 -67 -251 -88 -350 -30 -137 -64 -502 -64 -690 1 -198 26 -461 69
-711 10 -59 54 -240 73 -299 27 -85 41 -126 48 -145 4 -11 20 -54 35 -95 105
-281 304 -631 510 -895 71 -91 267 -316 297 -340 7 -6 56 -48 108 -94 169
-149 330 -255 353 -232 8 8 6 17 -9 35 -314 391 -513 699 -637 986 -8 19 -22
51 -30 71 -44 97 -125 382 -148 518 -80 467 -81 768 -3 1171 39 199 119 478
174 605 5 11 23 56 41 100 57 141 185 380 383 709 217 362 280 461 296 471 6
4 41 2 78 -4 149 -23 291 -31 817 -42 554 -13 1198 -4 1510 21 66 5 217 16
335 25 118 9 251 20 295 25 44 5 143 16 220 25 151 16 337 41 425 55 244 40
479 86 670 131 74 17 160 35 190 41 30 5 56 11 59 13 7 8 19 6 26 -5z"/>
<path d="M12024 9064 c-71 -49 -104 -110 -104 -199 0 -141 105 -238 242 -222
26 3 60 13 76 21 66 34 130 131 131 198 1 45 -37 132 -71 165 -52 49 -89 63
-166 63 -58 0 -75 -4 -108 -26z"/>
<path d="M12462 8145 c-37 -41 -48 -91 -32 -139 35 -109 182 -118 235 -16 18
34 19 83 4 111 -20 39 -89 79 -134 79 -36 0 -48 -5 -73 -35z"/>
<path d="M7272 4242 c-7 -5 -26 -45 -41 -91 -55 -155 -127 -277 -204 -348 -46
-42 -62 -51 -191 -104 -89 -36 -137 -78 -154 -136 -38 -129 11 -179 274 -274
120 -44 363 -111 539 -149 33 -7 87 -18 120 -26 33 -7 98 -20 145 -29 47 -8
108 -19 135 -24 50 -10 200 -33 325 -51 251 -37 697 -81 1070 -106 330 -23
1328 -23 1710 0 705 41 964 69 1515 166 51 9 64 11 280 56 118 25 331 76 390
94 17 5 71 21 120 35 330 95 423 163 386 285 -23 77 -87 128 -247 194 -96 40
-121 60 -192 156 -42 57 -113 194 -152 293 -27 69 -36 71 -160 26 -72 -26
-147 -51 -390 -131 -19 -6 -48 -15 -65 -19 -212 -53 -236 -59 -345 -83 -178
-40 -267 -57 -410 -81 -52 -8 -117 -20 -145 -25 -27 -5 -75 -12 -105 -15 -30
-3 -80 -10 -110 -15 -30 -5 -125 -16 -210 -25 -473 -46 -937 -63 -1320 -47
-336 15 -679 42 -885 72 -33 5 -112 16 -175 25 -314 45 -758 138 -975 205 -38
12 -165 57 -281 101 -216 81 -230 85 -252 71z"/>
</g>
</svg>
